<svg width="82" height="38" viewBox="0 0 82 38" fill="none" xmlns="http://www.w3.org/2000/svg">
<path opacity="0.3" d="M0.5 37V1" stroke="#E87A7A" stroke-linecap="round" stroke-linejoin="round" stroke-dasharray="3"/>
<path opacity="0.3" d="M25.5 37V1" stroke="#E87A7A" stroke-linecap="round" stroke-linejoin="round" stroke-dasharray="3"/>
<path opacity="0.3" d="M50.5 37V1" stroke="#E87A7A" stroke-linecap="round" stroke-linejoin="round" stroke-dasharray="3"/>
<path opacity="0.3" d="M75.5 37V1" stroke="#E87A7A" stroke-linecap="round" stroke-linejoin="round" stroke-dasharray="3"/>
<path opacity="0.3" fill-rule="evenodd" clip-rule="evenodd" d="M1.00009 30.8913C1.00009 30.8913 10.1291 15.8055 26.3403 17.2769C42.5515 18.7483 43.4811 19.3574 51.8717 10.8913C58.4691 2.3603 66.5978 4.50566 75.3402 10.8913V36.8354H0.932129L1.00009 30.8913Z" fill="url(#paint0_linear)"/>
<path d="M1 30.8913C1 30.8913 12.6805 15.0538 26.3402 17.2769C40 19.5 43.955 19.5 51.8716 10.8913C59.7881 2.28257 66.5977 4.50566 75.3401 10.8913" stroke="#E87A7A" stroke-width="2" stroke-linecap="round" stroke-linejoin="round"/>
<g filter="url(#filter0_d)">
<circle cx="76" cy="11" r="4" fill="white"/>
<circle cx="76" cy="11" r="3" stroke="#E87A7A" stroke-width="2"/>
</g>
<defs>
<filter id="filter0_d" x="70" y="6" width="12" height="12" filterUnits="userSpaceOnUse" color-interpolation-filters="sRGB">
<feFlood flood-opacity="0" result="BackgroundImageFix"/>
<feColorMatrix in="SourceAlpha" type="matrix" values="0 0 0 0 0 0 0 0 0 0 0 0 0 0 0 0 0 0 127 0"/>
<feOffset dy="1"/>
<feGaussianBlur stdDeviation="1"/>
<feColorMatrix type="matrix" values="0 0 0 0 0.909804 0 0 0 0 0.478431 0 0 0 0 0.478431 0 0 0 0.3 0"/>
<feBlend mode="normal" in2="BackgroundImageFix" result="effect1_dropShadow"/>
<feBlend mode="normal" in="SourceGraphic" in2="effect1_dropShadow" result="shape"/>
</filter>
<linearGradient id="paint0_linear" x1="0.932129" y1="5.26892" x2="0.932129" y2="36.8354" gradientUnits="userSpaceOnUse">
<stop stop-color="#E87A7A"/>
<stop offset="1" stop-color="white" stop-opacity="0.01"/>
</linearGradient>
</defs>
</svg>
