<svg width="12" height="10" viewBox="0 0 12 10" fill="none" xmlns="http://www.w3.org/2000/svg">
<path d="M4.24789 9.38051C4.02785 9.38328 3.81558 9.29918 3.65716 9.14644L0.313398 5.80268C0.205725 5.64575 0.154823 5.45678 0.169106 5.267C0.183389 5.07722 0.262002 4.898 0.39195 4.75896C0.521899 4.61991 0.695402 4.52937 0.883782 4.5023C1.07216 4.47523 1.26414 4.51325 1.42799 4.61007L4.24789 7.40769L10.2778 1.24402C10.3415 1.1363 10.4285 1.04425 10.5325 0.974645C10.6364 0.905044 10.7547 0.859672 10.8786 0.841874C11.0024 0.824076 11.1287 0.834308 11.248 0.871813C11.3674 0.909319 11.4768 0.973143 11.5683 1.05858C11.6597 1.14401 11.7307 1.24887 11.7762 1.36544C11.8217 1.482 11.8404 1.60728 11.8311 1.73205C11.8217 1.85682 11.7844 1.97789 11.722 2.08633C11.6596 2.19477 11.5736 2.28782 11.4704 2.35861L4.84977 9.11301C4.77279 9.19603 4.67975 9.26255 4.57629 9.30853C4.47282 9.35451 4.3611 9.379 4.24789 9.38051Z" fill="white"/>
</svg>
