<svg width="18" height="18" viewBox="0 0 18 18" fill="none" xmlns="http://www.w3.org/2000/svg">
<path d="M10.1708 9.00523L16.2666 2.90947C16.583 2.59303 16.583 2.07672 16.2666 1.74362C15.9501 1.41052 15.4338 1.42717 15.1007 1.74362L9.00498 7.83937L2.90923 1.74362C2.59278 1.42717 2.07648 1.42717 1.74338 1.74362C1.41027 2.06007 1.42693 2.57637 1.74338 2.90947L7.83913 9.00523L1.74338 15.101C1.42693 15.4174 1.42693 15.9337 1.74338 16.2668C1.90993 16.4334 2.10979 16.5 2.3263 16.5C2.54282 16.5 2.74268 16.4167 2.90923 16.2668L9.00498 10.1711L15.1007 16.2668C15.2673 16.4334 15.4671 16.5 15.6837 16.5C15.9002 16.5 16.1 16.4167 16.2666 16.2668C16.583 15.9504 16.583 15.4341 16.2666 15.101L10.1708 9.00523Z" fill="#99A0B5"/>
</svg>
