<svg width="24" height="24" viewBox="0 0 24 24" fill="none" xmlns="http://www.w3.org/2000/svg">
<path fill-rule="evenodd" clip-rule="evenodd" d="M21.8959 12C21.8959 12.4167 21.5626 12.7708 21.1251 12.7708H19.4792V15.0208H21.0834C21.5001 15.0208 21.8542 15.375 21.8542 15.7917C21.8542 16.2083 21.5209 16.5625 21.0834 16.5625H19.4792V16.7917C19.4792 18.2708 18.2709 19.4792 16.7917 19.4792H16.5626V21.0833C16.5626 21.5 16.2292 21.8542 15.7917 21.8542C15.3751 21.8542 15.0209 21.5208 15.0209 21.0833V19.4792H12.7501V21.0833C12.7501 21.5 12.3959 21.8542 11.9792 21.8542C11.5626 21.8542 11.2084 21.5208 11.2084 21.0833V19.4792H8.93758V21.0833C8.93758 21.5 8.58341 21.8542 8.16675 21.8542C7.75008 21.8542 7.39591 21.5208 7.39591 21.0833V19.4792H7.16675C5.68758 19.4792 4.47925 18.2708 4.47925 16.7917V16.5625H2.87508C2.45841 16.5625 2.10425 16.2083 2.10425 15.7917C2.10425 15.375 2.43758 15.0208 2.87508 15.0208H4.47925V12.75H2.87508C2.45841 12.75 2.10425 12.3958 2.10425 11.9792C2.10425 11.5625 2.43758 11.2083 2.87508 11.2083H4.47925V8.9375H2.87508C2.45841 8.9375 2.10425 8.58333 2.10425 8.16666C2.10425 7.75 2.43758 7.39583 2.87508 7.39583H4.50008V7.16666C4.50008 5.6875 5.70841 4.47916 7.18758 4.47916H7.41675V2.875C7.41675 2.45833 7.77092 2.10416 8.18758 2.10416C8.60425 2.10416 8.95841 2.4375 8.95841 2.875V4.47916H11.2292V2.875C11.2292 2.45833 11.5834 2.10416 12.0001 2.10416C12.4167 2.10416 12.7709 2.4375 12.7709 2.875V4.47916H15.0626V2.875C15.0626 2.45833 15.3959 2.10416 15.8334 2.10416C16.2501 2.10416 16.6042 2.4375 16.6042 2.875V4.5H16.8334C18.3126 4.5 19.5209 5.70833 19.5209 7.1875V7.41666H21.1251C21.5417 7.41666 21.8959 7.77083 21.8959 8.1875C21.8959 8.60416 21.5626 8.95833 21.1251 8.95833H19.5209V11.2292H21.1251C21.5417 11.2292 21.8959 11.5833 21.8959 12ZM16.8334 17.9583C17.4584 17.9583 17.9584 17.4583 17.9584 16.8333V7.16666C17.9584 6.54166 17.4584 6.04166 16.8334 6.04166H7.16675C6.54175 6.04166 6.04175 6.54166 6.04175 7.16666V16.8333C6.04175 17.4583 6.54175 17.9583 7.16675 17.9583H16.8334ZM9.10425 8.3125H14.8959C15.3334 8.3125 15.6876 8.66666 15.6876 9.10416V14.8958C15.6876 15.3125 15.3542 15.6667 14.9167 15.6667H9.10425C8.68758 15.6667 8.33341 15.3333 8.33341 14.8958V9.08333C8.33341 8.66666 8.66675 8.3125 9.10425 8.3125ZM9.87508 14.125H14.1251V9.875H9.87508V14.125Z" fill="#99A0B5"/>
</svg>
