<svg width="24" height="24" viewBox="0 0 24 24" fill="none" xmlns="http://www.w3.org/2000/svg">
<path fill-rule="evenodd" clip-rule="evenodd" d="M12 2C6.45455 2 2 6.45455 2 12C2 17.5455 6.45455 22 12 22C17.5455 22 22 17.5455 22 12C22 6.45455 17.5455 2 12 2ZM11.0909 3.90909V11.0909H3.90909C4.27273 7.27273 7.27273 4.27273 11.0909 3.90909ZM3.90909 12.9091H11.5455L15.5455 19.3636C14.4545 19.9091 13.2727 20.1818 12 20.1818C7.81818 20.1818 4.36364 17 3.90909 12.9091ZM17.0909 18.3636L12.9091 11.7273V3.90909C17 4.36364 20.1818 7.81818 20.1818 12C20.1818 14.6364 19 16.9091 17.0909 18.3636Z" fill="#99A0B5"/>
</svg>
