<svg width="24" height="24" viewBox="0 0 24 24" fill="none" xmlns="http://www.w3.org/2000/svg">
<path fill-rule="evenodd" clip-rule="evenodd" d="M15.2667 11.7314C17.1234 10.3285 17.8757 7.89699 17.1354 5.69158C16.3951 3.48616 14.3277 2 12 2C9.67234 2 7.60493 3.48616 6.86461 5.69158C6.12429 7.89699 6.8766 10.3285 8.73333 11.7314C4.70686 13.1222 2.00415 16.9096 2 21.1672V22H22V21.1672C21.9959 16.9096 19.2931 13.1222 15.2667 11.7314ZM12 3.67807C14.0711 3.67807 15.75 5.35596 15.75 7.42574C15.75 9.49552 14.0711 11.1734 12 11.1734C9.92893 11.1734 8.25 9.49552 8.25 7.42574C8.25458 5.35786 9.93083 3.68265 12 3.67807ZM3.70833 20.3344C4.13785 16.0629 7.74602 12.8175 12.0417 12.839C16.3373 12.8175 19.9455 16.0629 20.375 20.3344H3.70833Z" fill="#99A0B5"/>
</svg>
