<svg width="62" height="62" viewBox="0 0 62 62" fill="none" xmlns="http://www.w3.org/2000/svg">
<circle opacity="0.1" cx="31" cy="31" r="31" fill="url(#paint0_linear)"/>
<g filter="url(#filter0_d)">
<circle cx="32" cy="31" r="24" fill="white"/>
</g>
<mask id="mask0" mask-type="alpha" maskUnits="userSpaceOnUse" x="8" y="7" width="48" height="48">
<circle cx="32" cy="31" r="24" fill="white"/>
</mask>
<g mask="url(#mask0)">
<rect opacity="0.05" x="14" y="13" width="25" height="25" rx="12.5" fill="#FFBD2F"/>
<path fill-rule="evenodd" clip-rule="evenodd" d="M30.7193 20.2459C31.9313 19.574 33.4445 19.9644 34.188 21.1095L34.2845 21.2703L43.3294 37.6132C43.5448 38.0025 43.6578 38.4402 43.6578 38.8851C43.6578 40.2745 42.5793 41.4117 41.2145 41.5041L41.0349 41.5101H22.9478C22.5033 41.5101 22.0661 41.3971 21.6772 41.1816C20.4651 40.5098 19.9929 39.019 20.5683 37.7807L20.6532 37.6135L29.6955 21.2705C29.9339 20.8396 30.2887 20.4845 30.7193 20.2459ZM41.7997 38.4612L32.7549 22.1182C32.521 21.6955 31.9889 21.5426 31.5665 21.7767C31.4589 21.8364 31.3654 21.9179 31.2919 22.0155L31.2252 22.1183L22.183 38.4613C21.9491 38.884 22.1019 39.4165 22.5243 39.6506C22.6215 39.7045 22.7278 39.7391 22.8374 39.7531L22.9478 39.7601H41.0349C41.5178 39.7601 41.9092 39.3684 41.9092 38.8851C41.9092 38.7739 41.888 38.664 41.8471 38.5613L41.7997 38.4612L32.7549 22.1182L41.7997 38.4612ZM31.9911 35.6688C32.6341 35.6688 33.1553 36.1904 33.1553 36.8339C33.1553 37.4773 32.6341 37.999 31.9911 37.999C31.3482 37.999 30.827 37.4773 30.827 36.8339C30.827 36.1904 31.3482 35.6688 31.9911 35.6688ZM31.9862 26.9161C32.4289 26.9158 32.7949 27.2447 32.8531 27.6717L32.8612 27.7904L32.8654 33.0423C32.8658 33.5256 32.4747 33.9176 31.9918 33.918C31.5492 33.9184 31.1831 33.5895 31.1249 33.1624L31.1168 33.0437L31.1126 27.7918C31.1123 27.3086 31.5034 26.9165 31.9862 26.9161Z" fill="#FFBD2F"/>
</g>
<defs>
<filter id="filter0_d" x="3" y="4" width="58" height="58" filterUnits="userSpaceOnUse" color-interpolation-filters="sRGB">
<feFlood flood-opacity="0" result="BackgroundImageFix"/>
<feColorMatrix in="SourceAlpha" type="matrix" values="0 0 0 0 0 0 0 0 0 0 0 0 0 0 0 0 0 0 127 0"/>
<feOffset dy="2"/>
<feGaussianBlur stdDeviation="2.5"/>
<feColorMatrix type="matrix" values="0 0 0 0 0 0 0 0 0 0 0 0 0 0 0 0 0 0 0.05 0"/>
<feBlend mode="normal" in2="BackgroundImageFix" result="effect1_dropShadow"/>
<feBlend mode="normal" in="SourceGraphic" in2="effect1_dropShadow" result="shape"/>
</filter>
<linearGradient id="paint0_linear" x1="-17.5562" y1="-11.2101" x2="6.05879" y2="69.227" gradientUnits="userSpaceOnUse">
<stop stop-color="white" stop-opacity="0.01"/>
<stop offset="1" stop-color="#FFBD2F"/>
</linearGradient>
</defs>
</svg>
