<svg width="16" height="16" viewBox="0 0 16 16" fill="none" xmlns="http://www.w3.org/2000/svg">
<path fill-rule="evenodd" clip-rule="evenodd" d="M6.70362 1.33331C9.6696 1.33331 12.074 3.73771 12.074 6.70368C12.074 7.98655 11.6242 9.16436 10.8737 10.088L14.5039 13.7183C14.7208 13.9352 14.7208 14.287 14.5039 14.5039C14.3066 14.7012 13.998 14.7191 13.7805 14.5577L13.7182 14.5039L10.0879 10.8737C9.1643 11.6242 7.98649 12.0741 6.70362 12.0741C3.73765 12.0741 1.33325 9.66966 1.33325 6.70368C1.33325 3.73771 3.73765 1.33331 6.70362 1.33331ZM6.70362 2.44442C4.3513 2.44442 2.44436 4.35136 2.44436 6.70368C2.44436 9.05601 4.3513 10.9629 6.70362 10.9629C9.05595 10.9629 10.9629 9.05601 10.9629 6.70368C10.9629 4.35136 9.05595 2.44442 6.70362 2.44442Z" fill="#99A0B5"/>
</svg>
