<svg width="20" height="20" viewBox="0 0 20 20" fill="none" xmlns="http://www.w3.org/2000/svg">
<path fill-rule="evenodd" clip-rule="evenodd" d="M17.5 12.5V7.5C17.5 3.35786 14.1421 0 10 0C5.85786 0 2.5 3.35786 2.5 7.5V12.5C1.11929 12.5 0 13.6193 0 15C0 16.3807 1.11929 17.5 2.5 17.5H6.78333C7.17783 18.9516 8.49572 19.9592 10 19.9592C11.5043 19.9592 12.8222 18.9516 13.2167 17.5H17.5C18.8807 17.5 20 16.3807 20 15C20 13.6193 18.8807 12.5 17.5 12.5ZM10 18.3333C9.40517 18.3327 8.85575 18.0151 8.55833 17.5H11.4417C11.1443 18.0151 10.5948 18.3327 10 18.3333ZM17.5 15.8333H2.5C2.03976 15.8333 1.66667 15.4602 1.66667 15C1.66667 14.5398 2.03976 14.1667 2.5 14.1667H4.16667V7.5C4.16667 4.27834 6.77834 1.66667 10 1.66667C13.2217 1.66667 15.8333 4.27834 15.8333 7.5V14.1667H17.5C17.9602 14.1667 18.3333 14.5398 18.3333 15C18.3333 15.4602 17.9602 15.8333 17.5 15.8333Z" fill="#99A0B5"/>
</svg>
