<svg width="24" height="24" viewBox="0 0 24 24" fill="none" xmlns="http://www.w3.org/2000/svg">
<path d="M13.5614 12.007L21.6891 3.8793C22.111 3.45737 22.111 2.76896 21.6891 2.32483C21.2672 1.88069 20.5788 1.9029 20.1346 2.32483L12.007 10.4525L3.8793 2.32483C3.45737 1.9029 2.76896 1.9029 2.32483 2.32483C1.88069 2.74676 1.9029 3.43516 2.32483 3.8793L10.4525 12.007L2.32483 20.1346C1.9029 20.5566 1.9029 21.245 2.32483 21.6891C2.54689 21.9112 2.81338 22 3.10206 22C3.39075 22 3.65723 21.889 3.8793 21.6891L12.007 13.5614L20.1346 21.6891C20.3567 21.9112 20.6232 22 20.9119 22C21.2006 22 21.467 21.889 21.6891 21.6891C22.111 21.2672 22.111 20.5788 21.6891 20.1346L13.5614 12.007Z" fill="#99A0B5"/>
</svg>
