<svg width="24" height="24" viewBox="0 0 24 24" fill="none" xmlns="http://www.w3.org/2000/svg">
<path fill-rule="evenodd" clip-rule="evenodd" d="M22 11.1667H20.3333C20.1676 9.54023 19.5271 7.99847 18.4917 6.73333L19.7 5.51667L18.4833 4.34167L17.2667 5.55C16.0015 4.51453 14.4598 3.87406 12.8333 3.70833V2H11.1667V3.70833C9.54023 3.87406 7.99847 4.51453 6.73333 5.55L5.51667 4.34167L4.34167 5.51667L5.55 6.73333C4.51453 7.99847 3.87406 9.54023 3.70833 11.1667H2V12.8333H3.70833C3.87406 14.4598 4.51453 16.0015 5.55 17.2667L4.34167 18.4833L5.51667 19.6583L6.73333 18.45C7.99351 19.5005 9.53572 20.1556 11.1667 20.3333V22H12.8333V20.3333C14.4598 20.1676 16.0015 19.5271 17.2667 18.4917L18.4833 19.7L19.6583 18.525L18.45 17.3083C19.508 16.0367 20.1636 14.4789 20.3333 12.8333H22V11.1667ZM12 18.6667C8.3181 18.6667 5.33333 15.6819 5.33333 12C5.33333 8.3181 8.3181 5.33333 12 5.33333C15.6819 5.33333 18.6667 8.3181 18.6667 12C18.6667 13.7681 17.9643 15.4638 16.714 16.714C15.4638 17.9643 13.7681 18.6667 12 18.6667ZM12 7.83333C9.69881 7.83333 7.83333 9.69881 7.83333 12C7.83333 14.3012 9.69881 16.1667 12 16.1667C14.3012 16.1667 16.1667 14.3012 16.1667 12C16.1667 10.8949 15.7277 9.83512 14.9463 9.05372C14.1649 8.27232 13.1051 7.83333 12 7.83333ZM12 14.5C10.6193 14.5 9.5 13.3807 9.5 12C9.5 10.6193 10.6193 9.5 12 9.5C13.3807 9.5 14.5 10.6193 14.5 12C14.5 12.663 14.2366 13.2989 13.7678 13.7678C13.2989 14.2366 12.663 14.5 12 14.5Z" fill="#99A0B5"/>
</svg>
