<svg width="62" height="62" viewBox="0 0 62 62" fill="none" xmlns="http://www.w3.org/2000/svg">
<circle opacity="0.1" cx="31" cy="31" r="31" fill="url(#paint0_linear)"/>
<g filter="url(#filter0_d)">
<circle cx="31" cy="31" r="24" fill="white"/>
</g>
<mask id="mask0" mask-type="alpha" maskUnits="userSpaceOnUse" x="7" y="7" width="48" height="48">
<circle cx="31" cy="31" r="24" fill="white"/>
</mask>
<g mask="url(#mask0)">
<rect opacity="0.05" x="13" y="13" width="25" height="25" rx="12.5" fill="#E87A7A"/>
<path fill-rule="evenodd" clip-rule="evenodd" d="M32.0069 20.5H30.0175V24.1351H32.0069V20.5ZM30.9999 26.0754C34.3648 26.0754 37.0911 28.8018 37.0911 32.1667H37.0666V35.7097H39.228V41.5H22.7473V35.7097H24.9087V32.1667C24.9087 28.8018 27.635 26.0754 30.9999 26.0754ZM30.9999 28.0649C28.7403 28.0649 26.8982 29.907 26.8982 32.1667V35.7097H35.1017V32.1667C35.1017 29.907 33.2596 28.0649 30.9999 28.0649ZM37.2385 39.5105H24.7368V37.6992H37.2385V39.5105ZM22.0403 24.6108L23.447 23.2041L26.0174 25.7744L24.6107 27.1812L22.0403 24.6108ZM22.9683 31.1842H19.3333V33.1737H22.9683V31.1842ZM39.0315 31.1842H42.6666V33.1737H39.0315V31.1842ZM38.5564 23.2062L35.9861 25.7769L37.393 27.1837L39.9634 24.6129L38.5564 23.2062Z" fill="#E87A7A"/>
</g>
<defs>
<filter id="filter0_d" x="2" y="4" width="58" height="58" filterUnits="userSpaceOnUse" color-interpolation-filters="sRGB">
<feFlood flood-opacity="0" result="BackgroundImageFix"/>
<feColorMatrix in="SourceAlpha" type="matrix" values="0 0 0 0 0 0 0 0 0 0 0 0 0 0 0 0 0 0 127 0"/>
<feOffset dy="2"/>
<feGaussianBlur stdDeviation="2.5"/>
<feColorMatrix type="matrix" values="0 0 0 0 0 0 0 0 0 0 0 0 0 0 0 0 0 0 0.05 0"/>
<feBlend mode="normal" in2="BackgroundImageFix" result="effect1_dropShadow"/>
<feBlend mode="normal" in="SourceGraphic" in2="effect1_dropShadow" result="shape"/>
</filter>
<linearGradient id="paint0_linear" x1="-17.5562" y1="-11.2101" x2="6.05879" y2="69.227" gradientUnits="userSpaceOnUse">
<stop stop-color="white" stop-opacity="0.01"/>
<stop offset="1" stop-color="#E87A7A"/>
</linearGradient>
</defs>
</svg>
