<svg width="24" height="24" viewBox="0 0 24 24" fill="none" xmlns="http://www.w3.org/2000/svg">
<path fill-rule="evenodd" clip-rule="evenodd" d="M6.03318 6.03517C4.44106 7.62719 3.56428 9.74538 3.56428 11.9996C3.56428 14.2538 4.44106 16.3721 6.03318 17.9641C6.33858 18.2696 6.33858 18.7648 6.03318 19.0702C5.72815 19.3752 5.23295 19.376 4.92708 19.0702C3.03952 17.1828 2 14.6717 2 11.9996C2 9.32756 3.03952 6.81647 4.92708 4.92907C5.23253 4.62367 5.72778 4.62361 6.03318 4.92907C6.33863 5.23452 6.33863 5.72972 6.03318 6.03517ZM19.0729 4.92907C18.7675 4.62367 18.2722 4.62367 17.9668 4.92907C17.6614 5.23452 17.6614 5.72972 17.9668 6.03517C19.5589 7.62714 20.4357 9.74538 20.4357 11.9996C20.4357 14.2538 19.5589 16.372 17.9668 17.9641C17.6614 18.2695 17.6614 18.7647 17.9668 19.0702C18.2722 19.3755 18.7674 19.3757 19.0729 19.0702C20.9605 17.1827 22 14.6717 22 11.9996C22 9.32746 20.9604 6.81647 19.0729 4.92907ZM16.7029 7.29906C16.3974 6.99366 15.9022 6.99366 15.5968 7.29906C15.2913 7.60451 15.2914 8.09976 15.5968 8.40516C16.5562 9.36448 17.0846 10.641 17.0846 11.9996C17.0846 13.3581 16.5562 14.6346 15.5968 15.594C15.2913 15.8994 15.2913 16.3946 15.5968 16.7001C15.9022 17.0055 16.3974 17.0056 16.7029 16.7001C17.9577 15.4453 18.6488 13.7759 18.6488 11.9995C18.6488 10.2231 17.9577 8.55387 16.7029 7.29906ZM8.40322 7.29911C8.09782 6.99366 7.60257 6.99366 7.29712 7.29911C6.04226 8.55392 5.35116 10.2233 5.35116 11.9997C5.35116 13.7761 6.04226 15.4454 7.29712 16.7002C7.60299 17.006 8.09819 17.0053 8.40322 16.7002C8.70868 16.3948 8.70862 15.8995 8.40322 15.5941C7.4438 14.6348 6.91544 13.3582 6.91544 11.9997C6.91544 10.6412 7.4438 9.36463 8.40322 8.40531C8.70862 8.09981 8.70862 7.60456 8.40322 7.29911ZM8.70456 11.9996C8.70456 10.1825 10.1829 8.7042 12 8.7042C13.8171 8.7042 15.2954 10.1825 15.2954 11.9996C15.2954 13.8167 13.817 15.295 12 15.295C10.1829 15.295 8.70456 13.8167 8.70456 11.9996ZM10.2688 11.9996C10.2688 12.9541 11.0454 13.7307 12 13.7307C12.9546 13.7307 13.7311 12.9541 13.7311 11.9996C13.7311 11.0451 12.9545 10.2685 12 10.2685C11.0455 10.2685 10.2688 11.0451 10.2688 11.9996Z" fill="#3241D3"/>
</svg>
