<svg width="81" height="38" viewBox="0 0 81 38" fill="none" xmlns="http://www.w3.org/2000/svg">
<path opacity="0.3" d="M0.5 37V1" stroke="#5CB592" stroke-linecap="round" stroke-linejoin="round" stroke-dasharray="3"/>
<path opacity="0.3" d="M25.5 37V1" stroke="#5CB592" stroke-linecap="round" stroke-linejoin="round" stroke-dasharray="3"/>
<path opacity="0.3" d="M50.5 37V1" stroke="#5CB592" stroke-linecap="round" stroke-linejoin="round" stroke-dasharray="3"/>
<path opacity="0.3" d="M75.5 37V1" stroke="#5CB592" stroke-linecap="round" stroke-linejoin="round" stroke-dasharray="3"/>
<path opacity="0.3" fill-rule="evenodd" clip-rule="evenodd" d="M1.00009 30.8913C1.00009 30.8913 9.00298 12.2903 26.3403 17.2769C43.6777 22.2635 45.6295 19.4298 51.8717 10.8913C58.1138 2.35273 66.5978 4.50567 75.3402 10.8913V36.8354H0.932129L1.00009 30.8913Z" fill="url(#paint0_linear)"/>
<path d="M1 30.8913C1 30.8913 9.0029 12.2903 26.3402 17.2769C43.6776 22.2635 45.6295 19.4298 51.8716 10.8913C58.1137 2.35273 66.5977 4.50567 75.3401 10.8913" stroke="#5CB592" stroke-width="2" stroke-linecap="round" stroke-linejoin="round"/>
<g filter="url(#filter0_d)">
<circle cx="75" cy="10" r="3" fill="white"/>
<circle cx="75" cy="10" r="3" stroke="#5CB592" stroke-width="2"/>
</g>
<defs>
<filter id="filter0_d" x="69" y="5" width="12" height="12" filterUnits="userSpaceOnUse" color-interpolation-filters="sRGB">
<feFlood flood-opacity="0" result="BackgroundImageFix"/>
<feColorMatrix in="SourceAlpha" type="matrix" values="0 0 0 0 0 0 0 0 0 0 0 0 0 0 0 0 0 0 127 0"/>
<feOffset dy="1"/>
<feGaussianBlur stdDeviation="1"/>
<feColorMatrix type="matrix" values="0 0 0 0 0.361345 0 0 0 0 0.707348 0 0 0 0 0.572534 0 0 0 0.3 0"/>
<feBlend mode="normal" in2="BackgroundImageFix" result="effect1_dropShadow"/>
<feBlend mode="normal" in="SourceGraphic" in2="effect1_dropShadow" result="shape"/>
</filter>
<linearGradient id="paint0_linear" x1="0.932129" y1="5.2659" x2="0.932129" y2="36.8354" gradientUnits="userSpaceOnUse">
<stop stop-color="#5CB592"/>
<stop offset="1" stop-color="white" stop-opacity="0.01"/>
</linearGradient>
</defs>
</svg>
