<svg width="20" height="20" viewBox="0 0 20 20" fill="none" xmlns="http://www.w3.org/2000/svg">
<path fill-rule="evenodd" clip-rule="evenodd" d="M14.1665 16.6667V16.5825C15.1975 15.5303 15.8332 14.0894 15.8332 12.5C15.8332 10.9106 15.1975 9.46967 14.1665 8.41751V5.83334C14.1665 3.53216 12.301 1.66667 9.99984 1.66667C7.69865 1.66667 5.83317 3.53216 5.83317 5.83334V8.41751C4.80218 9.46967 4.1665 10.9106 4.1665 12.5C4.1665 14.0894 4.80218 15.5303 5.83317 16.5825V16.6667H5.91735C6.96946 17.6977 8.41042 18.3333 9.99984 18.3333C11.5893 18.3333 13.0302 17.6977 14.0823 16.6667H14.1665ZM7.02357 9.584L7.49984 9.098V5.83334C7.49984 4.45263 8.61909 3.33334 9.99984 3.33334C11.3806 3.33334 12.4998 4.45263 12.4998 5.83334V9.098L12.9761 9.584C13.7142 10.3373 14.1665 11.3642 14.1665 12.5C14.1665 13.6358 13.7142 14.6628 12.9761 15.416L12.9463 15.4464L12.9158 15.4763C12.1626 16.2143 11.1357 16.6667 9.99984 16.6667C8.864 16.6667 7.83706 16.2143 7.08385 15.4763L7.0534 15.4464L7.02357 15.416C6.28548 14.6628 5.83317 13.6358 5.83317 12.5C5.83317 11.3642 6.28548 10.3373 7.02357 9.584ZM9.1665 5.83334C9.1665 5.37308 9.53959 5.00001 9.99984 5.00001C10.4601 5.00001 10.8332 5.37308 10.8332 5.83334V10.1423C11.8042 10.4854 12.4998 11.4115 12.4998 12.5C12.4998 13.8808 11.3806 15 9.99984 15C8.61909 15 7.49984 13.8808 7.49984 12.5C7.49984 11.4115 8.19549 10.4854 9.1665 10.1423V5.83334ZM9.99984 13.3333C10.4601 13.3333 10.8332 12.9603 10.8332 12.5C10.8332 12.0398 10.4601 11.6667 9.99984 11.6667C9.53959 11.6667 9.1665 12.0398 9.1665 12.5C9.1665 12.9603 9.53959 13.3333 9.99984 13.3333Z" fill="#7170C4"/>
</svg>
