<svg width="16" height="16" viewBox="0 0 16 16" fill="none" xmlns="http://www.w3.org/2000/svg">
<path fill-rule="evenodd" clip-rule="evenodd" d="M11.3333 13.3334V13.266C12.1581 12.4243 12.6666 11.2716 12.6666 10C12.6666 8.72851 12.1581 7.57577 11.3333 6.73404V4.66671C11.3333 2.82576 9.84085 1.33337 7.99992 1.33337C6.15897 1.33337 4.66659 2.82576 4.66659 4.66671V6.73404C3.84179 7.57577 3.33325 8.72851 3.33325 10C3.33325 11.2716 3.84179 12.4243 4.66659 13.266V13.3334H4.73393C5.57562 14.1582 6.72839 14.6667 7.99992 14.6667C9.27145 14.6667 10.4242 14.1582 11.2659 13.3334H11.3333ZM5.61891 7.66724L5.99992 7.27844V4.66671C5.99992 3.56214 6.89532 2.66671 7.99992 2.66671C9.10452 2.66671 9.99992 3.56214 9.99992 4.66671V7.27844L10.3809 7.66724C10.9714 8.26984 11.3333 9.09137 11.3333 10C11.3333 10.9087 10.9714 11.7302 10.3809 12.3328L10.3571 12.3572L10.3327 12.381C9.73012 12.9715 8.90859 13.3334 7.99992 13.3334C7.09125 13.3334 6.2697 12.9715 5.66713 12.381L5.64277 12.3572L5.61891 12.3328C5.02843 11.7302 4.66659 10.9087 4.66659 10C4.66659 9.09137 5.02843 8.26984 5.61891 7.66724ZM7.33325 4.66671C7.33325 4.2985 7.63172 4.00004 7.99992 4.00004C8.36812 4.00004 8.66659 4.2985 8.66659 4.66671V8.11384C9.44339 8.38837 9.99992 9.12924 9.99992 10C9.99992 11.1046 9.10452 12 7.99992 12C6.89532 12 5.99992 11.1046 5.99992 10C5.99992 9.12924 6.55644 8.38837 7.33325 8.11384V4.66671ZM7.99992 10.6667C8.36812 10.6667 8.66659 10.3682 8.66659 10C8.66659 9.63184 8.36812 9.33337 7.99992 9.33337C7.63172 9.33337 7.33325 9.63184 7.33325 10C7.33325 10.3682 7.63172 10.6667 7.99992 10.6667Z" fill="#7170C4"/>
</svg>
