<svg width="83" height="38" viewBox="0 0 83 38" fill="none" xmlns="http://www.w3.org/2000/svg">
<path opacity="0.3" d="M1.5 37V1" stroke="#FFBD2F" stroke-linecap="round" stroke-linejoin="round" stroke-dasharray="3"/>
<path opacity="0.3" d="M26.5 37V1" stroke="#FFBD2F" stroke-linecap="round" stroke-linejoin="round" stroke-dasharray="3"/>
<path opacity="0.3" d="M51.5 37V1" stroke="#FFBD2F" stroke-linecap="round" stroke-linejoin="round" stroke-dasharray="3"/>
<path opacity="0.3" d="M76.5 37V1" stroke="#FFBD2F" stroke-linecap="round" stroke-linejoin="round" stroke-dasharray="3"/>
<path opacity="0.3" fill-rule="evenodd" clip-rule="evenodd" d="M1 32.469C1 32.469 13.5 21.386 26 24.5225C38.5 27.659 44.2356 26.7158 51 18.5912C57.7644 10.4665 68.2269 7.14481 76 12.868V37H1V32.469Z" fill="url(#paint0_linear)"/>
<path d="M1 33C1 33 13.5 22.1483 26 25.2193C38.5 28.2904 44.2356 27.3669 51 19.4118C57.7644 11.4568 68.2269 8.20441 76 13.8081" stroke="#FFBD2F" stroke-width="2" stroke-linecap="round" stroke-linejoin="round"/>
<g filter="url(#filter0_d)">
<circle cx="77" cy="13" r="4" fill="white"/>
<circle cx="77" cy="13" r="3" stroke="#FFBD2F" stroke-width="2"/>
</g>
<defs>
<filter id="filter0_d" x="71" y="8" width="12" height="12" filterUnits="userSpaceOnUse" color-interpolation-filters="sRGB">
<feFlood flood-opacity="0" result="BackgroundImageFix"/>
<feColorMatrix in="SourceAlpha" type="matrix" values="0 0 0 0 0 0 0 0 0 0 0 0 0 0 0 0 0 0 127 0"/>
<feOffset dy="1"/>
<feGaussianBlur stdDeviation="1"/>
<feColorMatrix type="matrix" values="0 0 0 0 0.964706 0 0 0 0 0.533333 0 0 0 0 0.294118 0 0 0 0.3 0"/>
<feBlend mode="normal" in2="BackgroundImageFix" result="effect1_dropShadow"/>
<feBlend mode="normal" in="SourceGraphic" in2="effect1_dropShadow" result="shape"/>
</filter>
<linearGradient id="paint0_linear" x1="1" y1="10" x2="1" y2="37" gradientUnits="userSpaceOnUse">
<stop stop-color="#FFBD2F"/>
<stop offset="1" stop-color="white" stop-opacity="0.01"/>
</linearGradient>
</defs>
</svg>
